<svg width="20" height="20" viewBox="0 0 22 21" fill="none" xmlns="http://www.w3.org/2000/svg">
<path d="M6.6001 11.7687L10.2668 14.7437L13.5668 10.6531L16.8668 6.5625" stroke="#AC3A3A" stroke-width="2"/>
<path d="M11 21C4.9247 21 0 16.2991 0 10.5C0 4.70085 4.9247 0 11 0C17.0753 0 22 4.70085 22 10.5C22 16.2991 17.0753 21 11 21ZM11 18.9C13.3339 18.9 15.5722 18.015 17.2225 16.4397C18.8729 14.8644 19.8 12.7278 19.8 10.5C19.8 8.27218 18.8729 6.13561 17.2225 4.5603C15.5722 2.985 13.3339 2.1 11 2.1C8.66609 2.1 6.42778 2.985 4.77746 4.5603C3.12714 6.13561 2.2 8.27218 2.2 10.5C2.2 12.7278 3.12714 14.8644 4.77746 16.4397C6.42778 18.015 8.66609 18.9 11 18.9Z" fill="#C80F0F"/>
</svg>
