<svg width="28" height="25" viewBox="0 0 28 25" fill="none" xmlns="http://www.w3.org/2000/svg">
<path d="M23.0559 4.565H19.033V3.9675C19.033 3.12688 18.7369 2.5175 18.1384 2.14563C17.7156 1.90188 17.1913 1.77813 16.5816 1.77813H12.0729C12.0694 1.77813 12.0666 1.78 12.0631 1.78C12.0596 1.78 12.0568 1.77813 12.0533 1.77813H11.417C9.83567 1.77813 8.96487 2.55563 8.96487 3.9675V4.565H4.94407C4.80483 4.565 4.67129 4.61439 4.57284 4.70229C4.47438 4.7902 4.41907 4.90943 4.41907 5.03375C4.41907 5.15807 4.47438 5.2773 4.57284 5.36521C4.67129 5.45311 4.80483 5.5025 4.94407 5.5025H5.39697L6.75917 21.6181C6.75917 22.6375 7.42067 23.2219 8.57497 23.2219H19.3977C20.5254 23.2219 21.1876 22.6406 21.2121 21.6531L22.575 5.5025H23.0552C23.1241 5.50254 23.1924 5.49046 23.2561 5.46694C23.3198 5.44342 23.3777 5.40893 23.4265 5.36543C23.4753 5.32193 23.514 5.27028 23.5404 5.21342C23.5668 5.15657 23.5805 5.09562 23.5805 5.03406C23.5806 4.97251 23.567 4.91154 23.5407 4.85466C23.5143 4.79777 23.4757 4.74607 23.427 4.70252C23.3783 4.65896 23.3204 4.6244 23.2568 4.6008C23.1931 4.57721 23.1248 4.56504 23.0559 4.565V4.565ZM21.4445 6.425H6.52817L6.45047 5.5025H21.5222L21.4445 6.425ZM10.0156 3.9675C10.0156 3.07813 10.4216 2.71563 11.4177 2.71563H16.5823C16.9869 2.71563 17.3194 2.78875 17.5546 2.92375C17.8437 3.10313 17.9837 3.44438 17.9837 3.9675V4.565H10.0156V3.9675V3.9675ZM20.1642 21.6075C20.1509 22.1137 19.9577 22.2844 19.3977 22.2844H8.57497C8.00237 22.2844 7.80917 22.1163 7.80777 21.5825L6.60727 7.36188H21.3647L20.1642 21.6075V21.6075Z" fill="black"/>
<path d="M12.1807 8.10562C12.1118 8.1078 12.0441 8.12208 11.9814 8.14764C11.9187 8.1732 11.8623 8.20954 11.8154 8.25458C11.7684 8.29963 11.7319 8.35249 11.7079 8.41015C11.6838 8.46781 11.6728 8.52914 11.6753 8.59062L12.1681 20.6869C12.173 20.808 12.2302 20.9228 12.3279 21.007C12.4255 21.0913 12.5559 21.1385 12.6917 21.1387L12.7113 21.1381C12.7801 21.1359 12.8479 21.1217 12.9105 21.0961C12.9732 21.0706 13.0296 21.0342 13.0766 20.9892C13.1235 20.9441 13.1601 20.8913 13.1841 20.8336C13.2081 20.7759 13.2192 20.7146 13.2167 20.6531L12.7246 8.55625C12.7141 8.2975 12.4775 8.08312 12.1807 8.10562V8.10562Z" fill="black"/>
<path d="M8.92644 8.10625C8.78759 8.1149 8.65827 8.17243 8.56691 8.26619C8.47555 8.35995 8.42963 8.48227 8.43924 8.60625L9.36954 20.7025C9.37859 20.8208 9.43761 20.9317 9.53467 21.0127C9.63173 21.0936 9.7596 21.1387 9.89244 21.1387L9.92955 21.1375C10.0684 21.1288 10.1977 21.0713 10.2891 20.9776C10.3804 20.8838 10.4264 20.7615 10.4167 20.6375L9.48644 8.54125C9.47568 8.41764 9.41094 8.30277 9.30618 8.22139C9.20142 8.14001 9.06504 8.09866 8.92644 8.10625Z" fill="black"/>
<path d="M15.7752 8.10562C15.4819 8.08062 15.2418 8.29812 15.232 8.55687L14.7385 20.6531C14.7359 20.7146 14.7469 20.776 14.7709 20.8337C14.7949 20.8914 14.8315 20.9443 14.8784 20.9893C14.9254 21.0344 14.9818 21.0707 15.0446 21.0963C15.1073 21.1218 15.175 21.136 15.2439 21.1381L15.2635 21.1387C15.3993 21.1385 15.5297 21.0913 15.6273 21.007C15.725 20.9228 15.7822 20.808 15.7871 20.6869L16.2806 8.59062C16.2833 8.52912 16.2722 8.46776 16.2482 8.41006C16.2242 8.35236 16.1877 8.29947 16.1408 8.2544C16.0938 8.20934 16.0373 8.173 15.9746 8.14747C15.9119 8.12194 15.8441 8.10772 15.7752 8.10562V8.10562Z" fill="black"/>
<path d="M19.0295 8.10625C18.891 8.09883 18.7547 8.14024 18.65 8.22158C18.5452 8.30292 18.4805 8.41771 18.4695 8.54125L17.5392 20.6375C17.5296 20.7615 17.5755 20.8838 17.6669 20.9776C17.7582 21.0713 17.8876 21.1288 18.0264 21.1375L18.0635 21.1387C18.1963 21.1386 18.3241 21.0934 18.4211 21.0125C18.5181 20.9316 18.5772 20.8208 18.5864 20.7025L19.5167 8.60625C19.5263 8.48227 19.4804 8.35995 19.3891 8.26619C19.2977 8.17243 19.1684 8.1149 19.0295 8.10625V8.10625Z" fill="black"/>
</svg>
